Coordinates
version=1
nRows=26
nColumns=20
inDegrees=yes

Units are S.I. units (second, meters, Newtons, ...)
Angles are in degrees.

endheader
time	Th_rotX	Th_rotY	Th_rotZ	Th_transX	Th_transY	Th_transZ	Clav_rotZ_right	Clav_rotY_right	Clav_rotX_right	Scap_rotZ_right	Scap_rotY_right	Scap_rotX_right	Hum_rotZ_right	Hum_rotY_right	Hum_rotZZ_right	Elb_flex_right	Elb_ProSup_right	wrist_dev_r	wrist_flex_r
      0.62333333	     -3.54712882	     -2.27925505	      0.43735510	      0.50663418	      1.43589433	     -0.44346202	     14.66529455	      1.24989498	     48.36577412	    -21.28658561	    -28.64773758	     -3.78876493	      0.55459816	    -33.06024495	    -71.66247966	     19.53134153	     42.19400978	     31.16754483	     -0.35785211
      0.62666667	     -3.54733414	     -2.27894498	      0.43634401	      0.50665545	      1.43589890	     -0.44346363	     14.66521291	      1.25034380	     48.36535422	    -21.28692795	    -28.64788976	     -3.78940308	      0.55466604	    -33.06091295	    -71.66279423	     19.53137758	     42.19411789	     31.16762257	     -0.35784610
      0.63000000	     -3.54786641	     -2.27382264	      0.42262224	      0.50683454	      1.43582209	     -0.44348304	     14.66371191	      1.25391118	     48.35986656	    -21.29075860	    -28.64788976	     -3.79698784	      0.55601018	    -33.06872226	    -71.66655890	     19.53152620	     42.19531419	     31.16858506	     -0.35778609
      0.63333333	     -3.54801407	     -2.27283406	      0.42227172	      0.50684082	      1.43586472	     -0.44349008	     14.66311532	      1.25387934	     48.36027946	    -21.29080338	    -28.64788976	     -3.79656689	      0.55579642	    -33.06838417	    -71.66670095	     19.53194024	     42.19543382	     31.16862294	     -0.35774476
      0.63666667	     -3.54839187	     -2.27209950	      0.42133743	      0.50686039	      1.43588236	     -0.44346858	     14.66271101	      1.25432740	     48.36020420	    -21.29121719	    -28.64788976	     -3.79699235	      0.55563027	    -33.06883571	    -71.66696532	     19.53212421	     42.19553346	     31.16867540	     -0.35772424
      0.64000000	     -3.54861740	     -2.27157970	      0.42006516	      0.50688658	      1.43588954	     -0.44346133	     14.66247973	      1.25483980	     48.35975046	    -21.29163719	    -28.64788976	     -3.79767324	      0.55565885	    -33.06954026	    -71.66727717	     19.53214770	     42.19563346	     31.16875186	     -0.35771744
      0.64333333	     -3.54720074	     -2.26462063	      0.40164472	      0.50707830	      1.43582751	     -0.44350391	     14.65972088	      1.25795651	     48.35268520	    -21.29636454	    -28.64788976	     -3.80526703	      0.55759097	    -33.07789891	    -71.67078869	     19.53286548	     42.19662797	     31.16964846	     -0.35764706
      0.64666667	     -3.54781358	     -2.26361109	      0.40100830	      0.50708334	      1.43585476	     -0.44348346	     14.65909409	      1.25848087	     48.35315971	    -21.29687299	    -28.64779311	     -3.80546492	      0.55703829	    -33.07811938	    -71.67094863	     19.53338043	     42.19669139	     31.16965433	     -0.35761235
      0.65000000	     -3.54801575	     -2.26279901	      0.40001245	      0.50709337	      1.43585640	     -0.44347329	     14.65865176	      1.25878084	     48.35315465	    -21.29727115	    -28.64788976	     -3.80579331	      0.55685200	    -33.07848381	    -71.67114003	     19.53366003	     42.19676628	     31.16968816	     -0.35758844
      0.65333333	     -3.54818246	     -2.26197978	      0.39897904	      0.50712490	      1.43586140	     -0.44347977	     14.65822931	      1.25910391	     48.35309181	    -21.29757784	    -28.64788976	     -3.80612696	      0.55668495	    -33.07887952	    -71.67134805	     19.53392803	     42.19684467	     31.16973288	     -0.35756836
      0.65666667	     -3.54752701	     -2.25038834	      0.37629596	      0.50734967	      1.43581261	     -0.44353075	     14.65257990	      1.26303227	     48.34789261	    -21.30291269	    -28.64788976	     -3.81321527	      0.55679936	    -33.08652768	    -71.67564502	     19.53578327	     42.19794324	     31.17064831	     -0.35741005
      0.66000000	     -3.54740336	     -2.24935520	      0.37452416	      0.50728699	      1.43582171	     -0.44351295	     14.65202737	      1.26303537	     48.34768325	    -21.30348961	    -28.64788976	     -3.81337950	      0.55683448	    -33.08679996	    -71.67587507	     19.53619586	     42.19805528	     31.17069774	     -0.35736955
      0.66333333	     -3.54759093	     -2.24822591	      0.37391808	      0.50732205	      1.43584666	     -0.44352031	     14.65135093	      1.26312939	     48.34807804	    -21.30361684	    -28.64788976	     -3.81315695	      0.55652168	    -33.08666529	    -71.67598097	     19.53668170	     42.19813339	     31.17071792	     -0.35733244
      0.66666667	     -3.54823428	     -2.24755287	      0.37265448	      0.50732607	      1.43586013	     -0.44349999	     14.65099242	      1.26391447	     48.34797807	    -21.30423676	    -28.64788976	     -3.81387941	      0.55623001	    -33.08739268	    -71.67622151	     19.53695351	     42.19819902	     31.17074883	     -0.35731330
      0.67000000	     -3.54838180	     -2.24667704	      0.37158527	      0.50736308	      1.43586162	     -0.44350331	     14.65052491	      1.26418252	     48.34792003	    -21.30449206	    -28.64788976	     -3.81413683	      0.55611684	    -33.08771388	    -71.67644611	     19.53719008	     42.19827718	     31.17078772	     -0.35729285
      0.67333333	     -3.54865380	     -2.24598339	      0.37031837	      0.50739984	      1.43586600	     -0.44350677	     14.65019078	      1.26466931	     48.34772125	    -21.30480781	    -28.64788976	     -3.81464636	      0.55600101	    -33.08829280	    -71.67672333	     19.53737466	     42.19836993	     31.17083707	     -0.35727379
      0.67666667	     -3.54826797	     -2.23543714	      0.34690349	      0.50761445	      1.43582611	     -0.44355776	     14.64532174	      1.26856360	     48.34218159	    -21.30973379	    -28.64788976	     -3.82168980	      0.55676742	    -33.09659228	    -71.68036634	     19.54022678	     42.19967932	     31.17155235	     -0.35694945
      0.68000000	     -3.54789842	     -2.23497127	      0.34579269	      0.50756104	      1.43582421	     -0.44355218	     14.64514535	      1.26823029	     48.34198764	    -21.30985115	    -28.64788976	     -3.82153745	      0.55696339	    -33.09655045	    -71.68048345	     19.54045291	     42.19978370	     31.17158649	     -0.35691236
      0.68333333	     -3.54848926	     -2.23380575	      0.34519238	      0.50758007	      1.43583821	     -0.44352975	     14.64443037	      1.26863640	     48.34261497	    -21.31023297	    -28.64768504	     -3.82158329	      0.55635691	    -33.09669602	    -71.68062279	     19.54101644	     42.19983820	     31.17158737	     -0.35687660
      0.68666667	     -3.54856220	     -2.23293909	      0.34429809	      0.50761102	      1.43584741	     -0.44354720	     14.64399164	      1.26872808	     48.34274104	    -21.31028579	    -28.64788976	     -3.82155152	      0.55621928	    -33.09677576	    -71.68076870	     19.54136704	     42.19992318	     31.17161567	     -0.35684400
      0.69000000	     -3.54880632	     -2.23212445	      0.34324267	      0.50763323	      1.43585823	     -0.44354857	     14.64360197	      1.26895767	     48.34279637	    -21.31042489	    -28.64788976	     -3.82166915	      0.55605503	    -33.09700308	    -71.68095194	     19.54171321	     42.20002617	     31.17164382	     -0.35680643
      0.69333333	     -3.54953688	     -2.23167393	      0.34159187	      0.50764219	      1.43586829	     -0.44353760	     14.64343617	      1.26993086	     48.34241707	    -21.31101938	    -28.64788976	     -3.82266329	      0.55584575	    -33.09801052	    -71.68123681	     19.54191480	     42.20009729	     31.17168309	     -0.35679190
      0.69666667	     -3.55011279	     -2.23109504	      0.34009233	      0.50767153	      1.43587343	     -0.44353590	     14.64319136	      1.27072557	     48.34216923	    -21.31147533	    -28.64788976	     -3.82346599	      0.55561774	    -33.09886222	    -71.68151775	     19.54214029	     42.20017045	     31.17172866	     -0.35677819
      0.70000000	     -3.54501542	     -2.16774780	      0.24473637	      0.50777581	      1.43576195	     -0.44365831	     14.61404893	      1.26483466	     48.34264055	    -21.31782878	    -28.64665629	     -3.82200573	      0.55081009	    -33.10799186	    -71.69564326	     19.56879422	     42.20677425	     31.17496326	     -0.35451849
      0.70333333	     -3.54544659	     -2.16740908	      0.24512270	      0.50780049	      1.43577913	     -0.44366439	     14.61404407	      1.26480638	     48.34336891	    -21.31769174	    -28.64648540	     -3.82169523	      0.55031145	    -33.10787322	    -71.69583692	     19.56931968	     42.20688810	     31.17498029	     -0.35447331
      0.70666667	     -3.54613830	     -2.16754281	      0.24477206	      0.50779258	      1.43578297	     -0.44365594	     14.61435847	      1.26531335	     48.34348401	    -21.31792390	    -28.64660381	     -3.82223626	      0.54996111	    -33.10853982	    -71.69615188	     19.56960361	     42.20699298	     31.17502714	     -0.35445286
